Coordinates
version=1
nRows=37
nColumns=38
inDegrees=no

Units are S.I. units (second, meters, Newtons, ...)
If the header above contains a line with 'inDegrees', this indicates whether rotational values are in degrees (yes) or radians (no).

endheader
time	pelvis_tilt	pelvis_list	pelvis_rotation	pelvis_tx	pelvis_ty	pelvis_tz	hip_flexion_r	hip_adduction_r	hip_rotation_r	knee_angle_r	ankle_angle_r	subtalar_angle_r	mtp_angle_r	hip_flexion_l	hip_adduction_l	hip_rotation_l	knee_angle_l	ankle_angle_l	subtalar_angle_l	mtp_angle_l	lumbar_extension	lumbar_bending	lumbar_rotation	arm_flex_r	arm_add_r	arm_rot_r	elbow_flex_r	pro_sup_r	wrist_flex_r	wrist_dev_r	arm_flex_l	arm_add_l	arm_rot_l	elbow_flex_l	pro_sup_l	wrist_flex_l	wrist_dev_l
1.05	0.0798055	1.00046	1.4718	0.882728	0.556186	0.998845	0.347019	0.0523069	-0.0547503	0.293568	-0.117679	0	0	0.846748	-0.0759877	-0.236952	0	-0.234129	0	0	0.551252	0.067895	0.169122	-0.359715	-0.420443	-0.0481053	1.11654	1.5708	0	0	-0.418118	-0.120702	-0.515486	0.746386	1.23258	0	0
1.06	0.0740005	1.00106	1.47414	0.881108	0.569851	0.996337	0.340982	0.0466052	-0.0526466	0.31002	-0.115371	0	0	0.848319	-0.0700055	-0.241171	0	-0.228657	0	0	0.552925	0.0650835	0.169165	-0.361497	-0.418687	-0.0493363	1.11733	1.5708	0	0	-0.421297	-0.121676	-0.511606	0.749073	1.23545	0	0
1.07	0.066643	1.00217	1.48016	0.879335	0.583825	0.994207	0.335101	0.0390638	-0.0508318	0.328262	-0.114385	0	0	0.85134	-0.062187	-0.246297	0	-0.225367	0	0	0.554596	0.0596923	0.168142	-0.36337	-0.414671	-0.0515077	1.11425	1.5708	0	0	-0.423563	-0.123297	-0.508322	0.749403	1.23838	0	0
1.08	0.0595999	1.00368	1.48798	0.877497	0.598099	0.992412	0.329198	0.0309412	-0.0495571	0.347658	-0.116115	0	0	0.85481	-0.0536816	-0.250461	0	-0.228181	0	0	0.55596	0.0526632	0.165882	-0.365442	-0.40818	-0.0554862	1.10753	1.5708	0	0	-0.424997	-0.124766	-0.506794	0.748442	1.2382	0	0
1.09	0.0547108	1.0051	1.4955	0.875632	0.612656	0.990804	0.323462	0.0236918	-0.0480937	0.367037	-0.12032	0	0	0.859091	-0.0456218	-0.253414	0.026504	-0.234256	0	0	0.557788	0.0457142	0.162303	-0.368642	-0.400157	-0.0609503	1.09846	1.5708	0	0	-0.426038	-0.126232	-0.506514	0.745886	1.2346	0	0
1.1	0.051526	1.00615	1.50234	0.873755	0.62747	0.989337	0.319185	0.0171435	-0.0471135	0.388601	-0.127535	0	0	0.863359	-0.0377906	-0.252019	0.0611293	-0.245032	0	0	0.560313	0.0392673	0.15831	-0.373314	-0.391017	-0.0678314	1.08756	1.5708	0	0	-0.426713	-0.126869	-0.508304	0.742123	1.22623	0	0
1.11	0.0480702	1.00571	1.51004	0.871884	0.642364	0.988029	0.319013	0.0101408	-0.0457531	0.41518	-0.138136	0	0	0.86894	-0.0292896	-0.243702	0.0886788	-0.264409	0	0	0.564739	0.0323071	0.153947	-0.378062	-0.381269	-0.0742523	1.07362	1.56911	0	0	-0.427016	-0.126283	-0.512792	0.736819	1.2134	0	0
1.12	0.0426363	1.00225	1.52023	0.870036	0.657182	0.986899	0.325817	0.00176755	-0.0436574	0.449096	-0.154873	0	0	0.877809	-0.0202007	-0.231321	0.111556	-0.290649	0	0	0.573382	0.0232801	0.148471	-0.381294	-0.370425	-0.0782441	1.05454	1.56489	0	0	-0.428552	-0.125997	-0.517939	0.73073	1.19622	0	0
1.13	0.0364777	0.997835	1.53118	0.868303	0.67183	0.986123	0.337258	-0.00701484	-0.0387147	0.48841	-0.173434	0	0	0.887714	-0.0134413	-0.21777	0.136975	-0.306687	0	0	0.582969	0.0132908	0.142853	-0.382718	-0.359587	-0.0793712	1.03086	1.55928	0	0	-0.429595	-0.126837	-0.522786	0.722735	1.18174	0	0
1.14	0.0301772	0.993762	1.54278	0.866565	0.686134	0.985685	0.352771	-0.0167039	-0.0332337	0.533904	-0.200428	0	0	0.897117	-0.00905934	-0.202951	0.168102	-0.311196	0	0	0.590772	0.00268369	0.135299	-0.381169	-0.349276	-0.0779175	1.00387	1.55223	0	0	-0.431178	-0.128439	-0.526279	0.715051	1.17412	0	0
1.15	0.0226636	0.992292	1.5565	0.864622	0.70015	0.985731	0.369024	-0.028476	-0.0282842	0.582519	-0.235154	0	0	0.903441	-0.0043439	-0.188358	0.204218	-0.300424	0	0	0.593495	-0.00905632	0.12724	-0.377634	-0.339697	-0.0753266	0.975193	1.54294	0	0	-0.431151	-0.129733	-0.530494	0.707803	1.17658	0	0
1.16	0.014171	0.99307	1.57211	0.862486	0.71396	0.986156	0.385405	-0.0415925	-0.0235275	0.63231	-0.276392	0	0	0.906802	0.00238619	-0.172049	0.24306	-0.281148	0	0	0.592145	-0.0218175	0.119285	-0.373453	-0.330719	-0.0719311	0.945455	1.53253	0	0	-0.429614	-0.130098	-0.538026	0.701749	1.18568	0	0
1.17	0.00393604	0.994805	1.58922	0.860223	0.72757	0.986749	0.403327	-0.0557069	-0.0193022	0.683955	-0.318853	0	0	0.907613	0.0114563	-0.156672	0.280058	-0.262489	0	0	0.588793	-0.0351646	0.113425	-0.370431	-0.321981	-0.0691292	0.915917	1.52471	0	0	-0.426952	-0.129749	-0.548032	0.6975	1.19553	0	0
1.18	-0.00763337	0.996939	1.60624	0.857866	0.741008	0.987341	0.423157	-0.0699336	-0.0147029	0.736766	-0.363582	0	0	0.905938	0.0217753	-0.145908	0.311756	-0.244614	0	0	0.584519	-0.0480265	0.110597	-0.369152	-0.314069	-0.0666595	0.887543	1.52119	0	0	-0.42363	-0.128682	-0.558459	0.695161	1.2029	0	0
1.19	-0.019281	1.00073	1.62068	0.855495	0.754369	0.987914	0.442994	-0.0827519	-0.00773198	0.788771	-0.411479	0	0	0.900608	0.0315526	-0.142134	0.337969	-0.225601	0	0	0.578387	-0.0584755	0.111699	-0.370022	-0.307614	-0.0641392	0.86142	1.52021	0	0	-0.419508	-0.127358	-0.566191	0.693944	1.20792	0	0
1.2	-0.0290321	1.00543	1.63027	0.853315	0.767677	0.988422	0.463245	-0.0929882	-6.94211e-05	0.838394	-0.463462	0	0	0.892487	0.0390761	-0.142946	0.360466	-0.205048	0	0	0.571269	-0.0653247	0.115848	-0.37239	-0.303196	-0.0596384	0.837385	1.52274	0	0	-0.415095	-0.125899	-0.570673	0.693699	1.212	0	0
1.21	-0.0367918	1.01018	1.63446	0.851494	0.780793	0.988921	0.485316	-0.100527	0.00736797	0.886046	-0.520029	0	0	0.88244	0.0437909	-0.144447	0.380782	-0.183235	0	0	0.564487	-0.0684631	0.122676	-0.375037	-0.300466	-0.0516934	0.814177	1.5284	0	0	-0.410652	-0.124057	-0.573005	0.694212	1.21722	0	0
1.22	-0.0425825	1.01546	1.63374	0.850007	0.793743	0.989568	0.507743	-0.105257	0.0149826	0.929841	-0.579333	0	0	0.869974	0.0460753	-0.144501	0.399308	-0.159101	0	0	0.557457	-0.0681508	0.129775	-0.375755	-0.299748	-0.0385396	0.79052	1.5394	0	0	-0.407212	-0.121377	-0.575214	0.694837	1.22461	0	0
1.23	-0.0480093	1.02063	1.63007	0.848859	0.80656	0.990406	0.530622	-0.107739	0.024908	0.970421	-0.619343	0	0	0.855934	0.04669	-0.144295	0.415103	-0.13717	0	0	0.550788	-0.0656304	0.136669	-0.374546	-0.299961	-0.0222727	0.767529	1.55087	0	0	-0.405027	-0.118356	-0.577554	0.694591	1.22868	0	0
1.24	-0.0538692	1.02505	1.6258	0.84795	0.819272	0.991471	0.55411	-0.109121	0.0365625	1.00837	-0.633659	0	0	0.841117	0.0467434	-0.145262	0.42672	-0.118445	0	0	0.545508	-0.0627323	0.142678	-0.370945	-0.300675	-0.00170932	0.742646	1.56449	0	0	-0.404223	-0.115187	-0.581345	0.693812	1.22772	0	0
1.25	-0.0594863	1.02811	1.62252	0.847083	0.83183	0.992763	0.578252	-0.110355	0.047531	1.04329	-0.625589	0	0	0.826223	0.0470648	-0.147476	0.433116	-0.103184	0	0	0.542645	-0.0607372	0.146197	-0.364855	-0.302001	0.0255215	0.715052	1.5708	0	0	-0.405295	-0.112189	-0.58653	0.693374	1.22295	0	0
1.26	-0.065037	1.03006	1.6216	0.846164	0.844246	0.994307	0.602739	-0.112474	0.055807	1.07557	-0.598697	0	0	0.810925	0.0481581	-0.151714	0.434202	-0.0922907	0	0	0.542336	-0.0605335	0.145547	-0.355658	-0.30417	0.0621709	0.684431	1.5708	0	0	-0.408588	-0.109641	-0.592942	0.693188	1.21684	0	0
1.27	-0.0689816	1.03243	1.62259	0.845011	0.856632	0.996124	0.625613	-0.115435	0.0598537	1.10454	-0.562726	0	0	0.794028	0.0501599	-0.15528	0.431396	-0.0863926	0	0	0.542205	-0.0610283	0.141937	-0.346813	-0.304806	0.0972338	0.654013	1.5708	0	0	-0.411143	-0.10749	-0.599407	0.691031	1.21207	0	0
1.28	-0.0702331	1.03539	1.62384	0.843663	0.868906	0.998125	0.64679	-0.118084	0.0608461	1.12934	-0.522514	0	0	0.776038	0.0524002	-0.156155	0.426317	-0.0830672	0	0	0.541414	-0.0610934	0.135781	-0.339167	-0.304892	0.129906	0.625532	1.5708	0	0	-0.412165	-0.104714	-0.607298	0.687007	1.20839	0	0
1.29	-0.068817	1.03875	1.62499	0.842092	0.881106	1.00024	0.666389	-0.12063	0.059268	1.14905	-0.479915	0	0	0.757181	0.0548661	-0.154324	0.419572	-0.0814052	0	0	0.539716	-0.0607242	0.127049	-0.333209	-0.304579	0.158575	0.600299	1.5708	0	0	-0.412179	-0.100884	-0.617194	0.682008	1.20247	0	0
1.3	-0.0635371	1.04256	1.62446	0.840358	0.893244	1.00243	0.684286	-0.122573	0.0543717	1.16315	-0.437734	0	0	0.737767	0.0567166	-0.150118	0.412402	-0.0804222	0	0	0.537398	-0.0593477	0.116718	-0.329488	-0.303619	0.181612	0.577894	1.5708	0	0	-0.411711	-0.0976463	-0.625487	0.676396	1.19471	0	0
1.31	-0.0542429	1.04611	1.62181	0.838577	0.905375	1.00468	0.70098	-0.123601	0.0463382	1.17085	-0.398501	0	0	0.718373	0.0575454	-0.144466	0.404929	-0.0801203	0	0	0.535493	-0.0567608	0.105159	-0.328419	-0.301796	0.197891	0.558176	1.5708	0	0	-0.411576	-0.0961452	-0.630287	0.670418	1.1894	0	0
1.32	-0.0414531	1.04908	1.61705	0.836812	0.917481	1.00696	0.716878	-0.123619	0.035991	1.17253	-0.363315	0	0	0.69937	0.0572645	-0.138134	0.397556	-0.0802118	0	0	0.534042	-0.0528728	0.0930862	-0.330121	-0.299483	0.207765	0.541806	1.56692	0	0	-0.411383	-0.0959768	-0.632558	0.664107	1.19155	0	0
1.33	-0.030555	1.05268	1.6117	0.83523	0.929298	1.00926	0.732519	-0.122721	0.028863	1.17014	-0.332478	0	0	0.679485	0.0562223	-0.13615	0.389981	-0.0804299	0	0	0.530835	-0.0487923	0.0846	-0.332728	-0.296985	0.214101	0.528188	1.55643	0	0	-0.409631	-0.0964539	-0.634262	0.657511	1.19935	0	0
1.34	-0.0198927	1.05561	1.60561	0.833729	0.940922	1.01146	0.748567	-0.120977	0.0228114	1.16327	-0.30446	0	0	0.660166	0.0546673	-0.136435	0.381868	-0.0811318	0	0	0.527989	-0.0445489	0.0777353	-0.336112	-0.294605	0.218647	0.516282	1.54253	0	0	-0.407227	-0.0971871	-0.636925	0.650467	1.20825	0	0
1.35	-0.00817058	1.05734	1.59928	0.832224	0.952473	1.0135	0.764776	-0.118878	0.0160597	1.15191	-0.279403	0	0	0.641949	0.0528625	-0.136417	0.372612	-0.0827988	0	0	0.52646	-0.0403678	0.0703259	-0.340285	-0.292323	0.221708	0.50573	1.52677	0	0	-0.40574	-0.0983244	-0.639202	0.644207	1.21758	0	0
1.36	0.00465682	1.05814	1.59266	0.830752	0.963954	1.01537	0.780703	-0.116359	0.00896746	1.1361	-0.256449	0	0	0.624549	0.0506112	-0.135895	0.361982	-0.0855363	0	0	0.525625	-0.035947	0.0621049	-0.345357	-0.290105	0.222534	0.497213	1.50872	0	0	-0.404703	-0.0991481	-0.642343	0.638548	1.22753	0	0
1.37	0.0182748	1.05804	1.58564	0.82939	0.975307	1.01706	0.796429	-0.113463	0.00137965	1.11606	-0.234863	0	0	0.608171	0.0476973	-0.13557	0.350526	-0.0891136	0	0	0.525541	-0.0314004	0.0536094	-0.350659	-0.28802	0.222566	0.490046	1.49045	0	0	-0.403824	-0.0996308	-0.646708	0.633392	1.2366	0	0
1.38	0.032039	1.05698	1.57853	0.828127	0.986524	1.01853	0.812057	-0.110229	-0.0059473	1.09186	-0.215723	0	0	0.593107	0.0443389	-0.13579	0.339782	-0.0924372	0	0	0.526658	-0.0270797	0.0452937	-0.355809	-0.285594	0.221306	0.483025	1.47481	0	0	-0.40344	-0.0999624	-0.651181	0.629279	1.23997	0	0
1.39	0.0453709	1.05532	1.57213	0.826881	0.99763	1.01982	0.827162	-0.10725	-0.0131542	1.06362	-0.199089	0	0	0.578851	0.0409923	-0.134936	0.328941	-0.0958928	0	0	0.528599	-0.023219	0.0370777	-0.360325	-0.282817	0.219656	0.475229	1.46195	0	0	-0.403267	-0.0999029	-0.655619	0.626084	1.23742	0	0
1.4	0.0584116	1.05376	1.56646	0.825621	1.00873	1.02095	0.840781	-0.104987	-0.021467	1.03131	-0.183998	0	0	0.564371	0.0380475	-0.133673	0.318286	-0.099421	0	0	0.530394	-0.0196328	0.0284286	-0.364222	-0.279916	0.217669	0.467319	1.4479	0	0	-0.403344	-0.0993805	-0.659743	0.62396	1.23081	0	0
1.41	0.0712772	1.0517	1.56142	0.824377	1.01978	1.0219	0.853422	-0.103153	-0.0303666	0.99452	-0.171228	0	0	0.550482	0.0351873	-0.132001	0.307793	-0.103383	0	0	0.532651	-0.0162111	0.0194995	-0.367644	-0.277031	0.215604	0.459437	1.43204	0	0	-0.403805	-0.0989091	-0.66224	0.622785	1.22286	0	0
